<svg width="469" height="204" viewBox="0 0 469 204" fill="none" xmlns="http://www.w3.org/2000/svg">
<!-- <path d="M72.155 156.518C70.8477 156.518 69.7523 156.094 68.869 155.246C67.9857 154.398 67.544 153.356 67.544 152.119C67.544 150.812 67.9857 149.734 68.869 148.886C69.7523 148.038 70.8477 147.614 72.155 147.614C73.4977 147.614 74.593 148.038 75.441 148.886C76.3243 149.734 76.766 150.812 76.766 152.119C76.766 153.356 76.3243 154.398 75.441 155.246C74.593 156.094 73.4977 156.518 72.155 156.518ZM75.971 184.873C75.971 187.24 74.7343 188.424 72.261 188.424C71.0597 188.424 70.1057 188.141 69.399 187.576C68.6923 186.975 68.339 186.074 68.339 184.873V164.68C68.339 163.549 68.6217 162.666 69.187 162.03C69.7877 161.394 70.777 161.076 72.155 161.076C73.533 161.076 74.5047 161.394 75.07 162.03C75.6707 162.666 75.971 163.549 75.971 164.68V184.873ZM101.354 188.424C98.8103 188.424 97.5383 187.223 97.5383 184.82V172.1C97.5383 168.708 98.6159 166.023 100.771 164.044C102.962 162.065 105.842 161.076 109.41 161.076C112.979 161.076 115.841 162.065 117.996 164.044C120.187 166.023 121.282 168.708 121.282 172.1V184.82C121.282 187.223 120.01 188.424 117.466 188.424C114.922 188.424 113.65 187.223 113.65 184.82V172.524C113.65 170.863 113.279 169.609 112.537 168.761C111.795 167.878 110.753 167.436 109.41 167.436C108.068 167.436 107.025 167.878 106.283 168.761C105.541 169.609 105.17 170.863 105.17 172.524V184.82C105.17 187.223 103.898 188.424 101.354 188.424ZM152.172 188.424C151.466 188.424 150.724 188.283 149.946 188C149.204 187.682 148.498 187.134 147.826 186.357C147.155 185.544 146.572 184.378 146.077 182.859L140.512 165.422C140.265 164.609 140.3 163.867 140.618 163.196C140.936 162.489 141.449 161.942 142.155 161.553C142.862 161.129 143.639 160.917 144.487 160.917C145.265 160.917 145.971 161.111 146.607 161.5C147.279 161.889 147.738 162.489 147.985 163.302L153.179 180.845C154.522 178.619 155.405 176.411 155.829 174.22C156.289 171.994 156.518 169.856 156.518 167.807C156.518 167.171 156.501 166.553 156.465 165.952C156.43 165.316 156.412 164.715 156.412 164.15C156.412 163.125 156.819 162.33 157.631 161.765C158.479 161.2 159.416 160.917 160.44 160.917C162.56 160.917 163.779 161.924 164.097 163.938C164.168 164.291 164.221 164.768 164.256 165.369C164.292 165.934 164.309 166.588 164.309 167.33C164.309 168.531 164.186 169.945 163.938 171.57C163.726 173.16 163.302 174.874 162.666 176.711C162.066 178.513 161.147 180.368 159.91 182.276C158.815 183.972 157.826 185.262 156.942 186.145C156.094 187.028 155.282 187.629 154.504 187.947C153.727 188.265 152.95 188.424 152.172 188.424ZM195.791 188.424C192.01 188.424 189.025 187.346 186.834 185.191C184.643 183.036 183.548 179.555 183.548 174.75C183.548 169.909 184.643 166.429 186.834 164.309C189.025 162.154 192.01 161.076 195.791 161.076C199.572 161.076 202.557 162.154 204.748 164.309C206.939 166.429 208.034 169.909 208.034 174.75C208.034 179.555 206.939 183.036 204.748 185.191C202.557 187.346 199.572 188.424 195.791 188.424ZM195.791 182.064C196.78 182.064 197.611 181.87 198.282 181.481C198.953 181.057 199.466 180.315 199.819 179.255C200.208 178.195 200.402 176.693 200.402 174.75C200.402 172.807 200.208 171.305 199.819 170.245C199.466 169.185 198.953 168.461 198.282 168.072C197.611 167.648 196.78 167.436 195.791 167.436C194.837 167.436 194.007 167.648 193.3 168.072C192.629 168.461 192.099 169.185 191.71 170.245C191.357 171.305 191.18 172.807 191.18 174.75C191.18 176.693 191.357 178.195 191.71 179.255C192.099 180.315 192.629 181.057 193.3 181.481C194.007 181.87 194.837 182.064 195.791 182.064ZM232.853 156.518C231.545 156.518 230.45 156.094 229.567 155.246C228.683 154.398 228.242 153.356 228.242 152.119C228.242 150.812 228.683 149.734 229.567 148.886C230.45 148.038 231.545 147.614 232.853 147.614C234.195 147.614 235.291 148.038 236.139 148.886C237.022 149.734 237.464 150.812 237.464 152.119C237.464 153.356 237.022 154.398 236.139 155.246C235.291 156.094 234.195 156.518 232.853 156.518ZM236.669 184.873C236.669 187.24 235.432 188.424 232.959 188.424C231.757 188.424 230.803 188.141 230.097 187.576C229.39 186.975 229.037 186.074 229.037 184.873V164.68C229.037 163.549 229.319 162.666 229.885 162.03C230.485 161.394 231.475 161.076 232.853 161.076C234.231 161.076 235.202 161.394 235.768 162.03C236.368 162.666 236.669 163.549 236.669 164.68V184.873ZM270.352 188.424C266.041 188.424 262.843 187.187 260.759 184.714C258.674 182.205 257.632 178.902 257.632 174.803C257.632 170.704 258.674 167.401 260.759 164.892C262.843 162.348 266.041 161.076 270.352 161.076C273.072 161.076 275.051 161.359 276.288 161.924C277.56 162.489 278.196 163.496 278.196 164.945C278.196 165.97 277.913 166.712 277.348 167.171C276.782 167.63 276.023 167.86 275.069 167.86C274.397 167.86 273.867 167.807 273.479 167.701C273.09 167.595 272.666 167.507 272.207 167.436C271.783 167.33 271.111 167.277 270.193 167.277C268.956 167.277 267.967 167.648 267.225 168.39C266.518 169.132 266.006 170.086 265.688 171.252C265.405 172.383 265.264 173.566 265.264 174.803C265.264 176.004 265.37 177.188 265.582 178.354C265.829 179.485 266.306 180.421 267.013 181.163C267.719 181.87 268.797 182.223 270.246 182.223C271.588 182.223 272.578 182.135 273.214 181.958C273.85 181.746 274.468 181.64 275.069 181.64C276.023 181.64 276.782 181.817 277.348 182.17C277.913 182.488 278.196 183.159 278.196 184.184C278.196 185.633 277.56 186.71 276.288 187.417C275.051 188.088 273.072 188.424 270.352 188.424ZM303.16 156.518C301.853 156.518 300.758 156.094 299.874 155.246C298.991 154.398 298.549 153.356 298.549 152.119C298.549 150.812 298.991 149.734 299.874 148.886C300.758 148.038 301.853 147.614 303.16 147.614C304.503 147.614 305.598 148.038 306.446 148.886C307.33 149.734 307.771 150.812 307.771 152.119C307.771 153.356 307.33 154.398 306.446 155.246C305.598 156.094 304.503 156.518 303.16 156.518ZM306.976 184.873C306.976 187.24 305.74 188.424 303.266 188.424C302.065 188.424 301.111 188.141 300.404 187.576C299.698 186.975 299.344 186.074 299.344 184.873V164.68C299.344 163.549 299.627 162.666 300.192 162.03C300.793 161.394 301.782 161.076 303.16 161.076C304.538 161.076 305.51 161.394 306.075 162.03C306.676 162.666 306.976 163.549 306.976 164.68V184.873ZM332.36 188.424C329.816 188.424 328.544 187.223 328.544 184.82V172.1C328.544 168.708 329.621 166.023 331.777 164.044C333.967 162.065 336.847 161.076 340.416 161.076C343.984 161.076 346.846 162.065 349.002 164.044C351.192 166.023 352.288 168.708 352.288 172.1V184.82C352.288 187.223 351.016 188.424 348.472 188.424C345.928 188.424 344.656 187.223 344.656 184.82V172.524C344.656 170.863 344.285 169.609 343.543 168.761C342.801 167.878 341.758 167.436 340.416 167.436C339.073 167.436 338.031 167.878 337.289 168.761C336.547 169.609 336.176 170.863 336.176 172.524V184.82C336.176 187.223 334.904 188.424 332.36 188.424ZM397.412 191.233C397.412 194.236 395.999 196.48 393.172 197.964C390.346 199.448 386.3 200.19 381.035 200.19C378.315 200.19 376.318 199.837 375.046 199.13C373.81 198.459 373.191 197.399 373.191 195.95C373.191 194.925 373.474 194.236 374.039 193.883C374.605 193.565 375.364 193.406 376.318 193.406C377.025 193.406 377.626 193.441 378.12 193.512C378.615 193.618 379.145 193.706 379.71 193.777C380.311 193.883 381.053 193.936 381.936 193.936C384.728 193.936 386.724 193.724 387.925 193.3C389.162 192.876 389.78 192.01 389.78 190.703C389.78 189.608 389.339 188.724 388.455 188.053C387.572 187.382 386.459 187.046 385.116 187.046C376.99 187.046 372.926 182.718 372.926 174.061C372.926 169.644 373.951 166.376 376 164.256C378.05 162.136 381.106 161.076 385.169 161.076C387.855 161.076 390.081 161.535 391.847 162.454C392.695 159.274 394.497 157.684 397.253 157.684C398.596 157.684 399.621 158.037 400.327 158.744C401.069 159.415 401.44 160.405 401.44 161.712C401.44 162.913 401.087 163.779 400.38 164.309C399.674 164.839 398.543 165.104 396.988 165.104C396.317 165.104 395.699 165.157 395.133 165.263C396.653 167.383 397.412 170.333 397.412 174.114C397.412 176.481 397.059 178.442 396.352 179.997C395.681 181.552 394.427 182.841 392.589 183.866C394.356 184.502 395.593 185.491 396.299 186.834C397.041 188.141 397.412 189.608 397.412 191.233ZM380.558 174.061C380.558 178.478 382.095 180.686 385.169 180.686C388.243 180.686 389.78 178.478 389.78 174.061C389.78 171.764 389.392 170.086 388.614 169.026C387.872 167.966 386.724 167.436 385.169 167.436C383.65 167.436 382.502 167.966 381.724 169.026C380.947 170.086 380.558 171.764 380.558 174.061Z" fill="#9B177E"/> -->
<path d="M24.6925 118.52C24.6925 126.182 20.6914 130.012 12.6892 130.012C8.80241 130.012 5.71585 129.04 3.42951 127.096C1.14317 125.152 0 122.294 0 118.52V45.2813C0 32.4745 3.37235 22.8694 10.1171 16.466C16.8618 9.94819 28.1792 6.68931 44.0692 6.68931C55.8439 6.68931 65.0464 9.83385 71.6768 16.1229C78.4215 22.412 81.7939 32.5317 81.7939 46.482C81.7939 58.6027 78.593 67.8648 72.1912 74.2682C65.9038 80.6716 56.9871 83.8733 45.441 83.8733C38.925 83.8733 34.1808 84.3879 31.2086 85.417C28.3506 86.3318 26.5216 88.1041 25.7213 90.7341C25.0354 93.2497 24.6925 96.966 24.6925 101.883V118.52ZM23.1492 68.9511C24.521 67.8076 25.8357 66.8357 27.0931 66.0352C28.3506 65.1205 30.0082 64.4344 32.0659 63.977C34.238 63.4053 37.0959 63.1194 40.6397 63.1194C45.5553 63.1194 49.4421 62.7192 52.3001 61.9188C55.158 61.004 57.1585 59.346 58.3017 56.9447C59.5592 54.5434 60.1879 51.0558 60.1879 46.482C60.1879 40.4216 59.4449 36.0192 57.9588 33.2749C56.5869 30.4162 54.5864 28.5867 51.9571 27.7863C49.4421 26.8715 46.3556 26.4141 42.6974 26.4141C36.067 26.4141 31.38 27.6148 28.6364 30.016C26.0071 32.4173 24.6925 36.591 24.6925 42.537C24.6925 46.7678 24.5782 51.3989 24.3495 56.4301C24.1209 61.4614 23.7208 65.635 23.1492 68.9511Z" fill="#9B177E"/>
<path d="M133.486 118.52C133.486 126.182 129.485 130.012 121.482 130.012C117.596 130.012 114.509 129.04 112.223 127.096C109.936 125.152 108.793 122.294 108.793 118.52V50.5984C108.793 34.8186 111.994 23.5554 118.396 16.809C124.798 10.0625 134.8 6.68931 148.404 6.68931C162.351 6.68931 172.639 10.1197 179.27 16.9805C185.9 23.8413 189.215 35.0473 189.215 50.5984V118.52C189.215 126.182 185.214 130.012 177.212 130.012C173.325 130.012 170.239 129.04 167.952 127.096C165.666 125.152 164.523 122.294 164.523 118.52V77.184C162.351 79.1279 159.95 80.7859 157.321 82.1581C154.806 83.5303 151.834 84.2164 148.404 84.2164C143.374 84.2164 139.602 85.1311 137.087 86.9607C134.686 88.7902 133.486 92.0491 133.486 96.7373V118.52ZM132.457 68.265C134.286 66.4354 136.458 65.0061 138.973 63.977C141.602 62.9479 144.746 62.4333 148.404 62.4333C152.748 62.4333 156.063 62.0903 158.35 61.4042C160.75 60.7181 162.408 59.4031 163.322 57.4592C164.237 55.5153 164.694 52.6567 164.694 48.8832C164.694 40.4216 163.494 34.6471 161.093 31.5597C158.693 28.358 154.406 26.7572 148.233 26.7572C142.517 26.7572 138.573 28.4152 136.401 31.7312C134.343 34.9329 133.314 40.879 133.314 49.5693C133.314 54.0288 133.257 57.8023 133.143 60.8896C133.028 63.977 132.8 66.4354 132.457 68.265Z" fill="#9B177E"/>
<path d="M236.806 129.669C232.92 129.669 229.833 128.812 227.547 127.096C225.26 125.267 224.117 122.694 224.117 119.378V45.2813C224.117 32.0171 227.604 22.2976 234.577 16.1229C241.665 9.83385 252.697 6.68931 267.672 6.68931C279.904 6.68931 289.221 9.77667 295.623 15.9514C302.139 22.0118 305.397 30.8165 305.397 42.3655C305.397 46.3676 305.282 50.2554 305.054 54.0288C304.825 57.6879 304.482 60.2607 304.025 61.7472C302.31 68.0363 299.166 72.8389 294.594 76.1549C300.767 81.3005 303.853 87.2465 303.853 93.993V119.378C303.853 126.467 299.909 130.012 292.022 130.012C288.135 130.012 285.048 129.155 282.762 127.439C280.476 125.61 279.332 122.923 279.332 119.378V96.7373C279.332 90.5626 278.361 86.2174 276.417 83.7018C274.588 81.1862 270.816 79.9284 265.1 79.9284C258.927 79.9284 254.64 81.3005 252.239 84.0448C249.953 86.6748 248.81 91.5917 248.81 98.7956V119.378C248.81 126.239 244.809 129.669 236.806 129.669ZM247.438 65.8637C250.296 63.4624 252.811 61.9188 254.983 61.2327C257.269 60.4323 260.527 60.032 264.757 60.032C270.473 60.032 274.645 59.7462 277.275 59.1744C280.018 58.6027 281.79 57.4021 282.59 55.5725C283.391 53.743 283.791 50.8843 283.791 46.9965C283.791 39.2209 282.59 33.8466 280.19 30.8736C277.903 27.7863 273.731 26.2426 267.672 26.2426C260.927 26.2426 256.126 27.7863 253.268 30.8736C250.525 33.961 249.153 39.3353 249.153 46.9965C249.153 50.77 248.981 54.1432 248.638 57.1162C248.41 59.9749 248.01 62.8907 247.438 65.8637Z" fill="#9B177E"/>
<path fill-rule="evenodd" clip-rule="evenodd" d="M436.848 0C454.605 6.90644e-07 469 14.3985 469 32.16V101.84C469 119.601 454.605 134 436.848 134H367.186C349.429 134 335.035 119.601 335.035 101.84V32.16C335.035 14.3985 349.429 0 367.186 0H436.848ZM374.002 64.2345C373.582 64.1002 372.864 64.1107 372.596 64.1926C372.206 64.346 371.974 64.6051 371.968 64.6114C371.902 64.6792 371.854 64.7382 371.833 64.7649C371.76 64.8586 371.704 64.9512 371.692 64.9708C371.423 65.4061 370.177 67.7121 368.446 70.9467C364.933 77.5099 359.215 88.2825 354.679 96.8412C350.895 103.983 356.084 112.56 364.153 112.56H438.39C444.309 112.56 449.108 107.76 449.108 101.84V96.8342C449.107 90.9141 444.309 86.1143 438.39 86.1142H388.316C385.57 85.6699 382.985 85.114 380.679 84.4095C376.488 83.1295 373.54 81.4732 372.06 79.4997C371.351 78.5538 370.969 77.5265 370.938 76.3626C370.907 75.1765 371.237 73.7327 372.142 71.9831C373.213 69.9127 373.939 68.4994 374.368 67.6491C374.579 67.2306 374.729 66.9275 374.813 66.7487C374.834 66.704 374.856 66.653 374.877 66.6039C374.887 66.58 374.905 66.5426 374.921 66.4992C374.926 66.4858 374.973 66.3583 375.004 66.1957C375.004 66.1957 375.095 65.8209 374.971 65.3773C374.862 65.0865 374.391 64.4806 374.002 64.2345ZM364.788 23.2267C358.869 23.2268 354.071 28.0263 354.071 33.9467V38.9525C354.071 44.8726 358.869 49.6723 364.788 49.6725H414.863C417.608 50.1168 420.193 50.6726 422.499 51.3771C426.69 52.6572 429.638 54.3134 431.118 56.287C431.827 57.2329 432.209 58.2601 432.24 59.4241C432.271 60.6102 431.941 62.0539 431.036 63.8035C429.966 65.8741 429.24 67.2873 428.81 68.1376C428.599 68.5561 428.449 68.8592 428.366 69.0379C428.345 69.0827 428.322 69.1336 428.301 69.1827C428.291 69.2067 428.274 69.2441 428.257 69.2874C428.252 69.3008 428.205 69.4283 428.174 69.591C428.174 69.591 428.083 69.9658 428.207 70.4093C428.316 70.7001 428.787 71.306 429.177 71.5522C429.596 71.6866 430.314 71.676 430.583 71.594C430.972 71.4407 431.205 71.1815 431.211 71.1753C431.277 71.1074 431.324 71.0485 431.345 71.0217C431.418 70.928 431.474 70.8355 431.486 70.8159C431.755 70.3807 433.001 68.0747 434.732 64.84C438.246 58.2768 443.963 47.5042 448.499 38.9455C452.284 31.8036 447.095 23.227 439.025 23.2267H364.788Z" fill="#9B177E"/>
</svg>
